<svg xmlns="http://www.w3.org/2000/svg" width="235" height="40" viewBox="0 0 62.177082 10.583333">
    <g font-weight="400" font-size="11.73523808" letter-spacing="0" word-spacing="0">
        <path d="M8.837894 6.13086q0-1.91153-1.2524289-3.18199Q6.3330363 1.6784 4.4189469 1.6784q-1.9140892 0-3.1665181 1.27047Q0 4.21933 0 6.13086t1.2524288 3.182q1.2524289 1.27046 3.1665181 1.27046 1.9140894 0 3.1665182-1.27046 1.2524289-1.27047 1.2524289-3.182zm-1.417844 0q0 1.37537-.8507063 2.2612-.838891.87417-2.1503968.87417-1.2996902 0-2.1503966-.88583-.8507063-.87417-.8507063-2.24954 0-1.37537.8507063-2.24954.8507064-.88583 2.1503966-.88583 1.3115058 0 2.1503968.87418.8507063.89748.8507063 2.26119z"/>
        <path d="M19.541883 10.46677V9.1963h-1.004306V3.07708h1.004306V1.80662H16.84798l-2.504858 6.02597-2.528489-6.02597H9.1325451v1.27046h1.0397519v7.38969h2.268551V9.1963h-.957045V4.40583l2.481227 6.06094h.638029l2.516674-6.04929v6.04929z"/>
        <path d="M29.585495 3.07708V1.80662h-2.351258v6.14253q-.815261-1.25882-1.63052-2.44769-.578954-.86252-1.169722-1.74835-.590769-.89748-1.252429-1.94649h-2.481227v1.27046h1.075199v7.38969h2.445781V9.1963h-1.134276V4.1494l4.253532 6.42227h1.205168V3.07708z"/>
        <path d="M32.23934 1.49192V-.00001h-1.417844v1.49193zm1.027937 8.97485V9.1963h-1.016122V1.80662h-1.417844V9.1963h-1.004306v1.27047z"/>
        <path d="M40.083816 3.74146V2.1796h-6.380298v2.49431h.543507V2.7041h2.315812v6.86519h-1.098829v.52449h1.760489V2.7041h2.315812v1.03736z"/>
        <path d="M46.868973 10.09378v-.52449h-4.737961V6.3057h3.331933v-.5245h-3.331933V2.7041h4.194454v1.39868h.531692V2.1796h-6.415744v.5245h1.027936v7.38968z"/>
        <path d="M54.792845 7.51789l-.543507-.31471q-.472615 1.28213-1.287875 1.87657-.803444.55947-1.914089.55947-1.476921 0-2.410334-.99074-.94523-1.00238-.94523-2.51762 0-1.53854.933413-2.52927.921599-.97907 2.374889-.97907 1.016122 0 1.890459.55947.850706.53616 1.051567 1.52688h.555323V2.87894h-.543507v.59444q-.590768-.75762-1.370583-1.08398-.815259-.33801-1.559628-.33801-1.76049 0-2.882949 1.14225-1.110645 1.1306-1.110645 2.93722 0 1.82995 1.110645 2.96054 1.098829 1.11895 2.894765 1.11895 1.252428 0 2.233104-.62941.968859-.62941 1.524182-2.06305z"/>
        <path d="M62.177087 2.7041v-.5245h-2.670273v.5245h1.039752v2.99551h-4.3835V2.1796H54.52073v.5245h.980676v6.86519h-.968861v.52449h1.630521V6.21246h4.3835v3.35683H59.51863v.52449h1.689598V2.7041z"/>
    </g>
</svg>
